<?xml version="1.0" encoding="utf-8"?>
<!-- Generator: Adobe Illustrator 21.1.0, SVG Export Plug-In . SVG Version: 6.00 Build 0)  -->
<svg version="1.1" id="Layer_1" xmlns="http://www.w3.org/2000/svg" xmlns:xlink="http://www.w3.org/1999/xlink" x="0px" y="0px"
	 viewBox="0 0 56 56" style="enable-background:new 0 0 56 56;" xml:space="preserve">
<style type="text/css">
	.st0{fill:#FFFFFF;}
	.st1{fill:#B6B9C1;}
	.st2{fill:#4B515A;}
</style>
<g>
	<circle class="st0" cx="28" cy="28" r="26.8"/>
	<path class="st1" d="M28,2.5c14.1,0,25.5,11.4,25.5,25.5S42.1,53.5,28,53.5S2.5,42.1,2.5,28S13.9,2.5,28,2.5 M28,0
		C12.5,0,0,12.5,0,28s12.5,28,28,28s28-12.5,28-28S43.5,0,28,0L28,0z"/>
</g>
<g>
	<g>
		<g>
			<path class="st2" d="M39,15.5L39,15.5c0-0.1-0.1-0.3-0.1-0.4l0,0l0,0c-0.1,0-0.4-0.1-0.5-0.1H17.7c-0.3,0-0.4,0.1-0.5,0.3l0,0
				l0,0c0,0.1-0.1,0.1-0.1,0.3c0,0,0,0,0,0.1l0,0V38c0,1.6,0,1.5,0.8,2.3c0.5,0.4,1.2,0.7,2.6,0.7h13.3c3.3,0,5.2-1.6,5.2-4.8V15.5
				C39,15.7,39,15.7,39,15.5z M37.6,36.2c0,2.3-1.2,3.4-3.8,3.4H20.4c-0.8,0-1.4-0.1-1.6-0.4c-0.4-0.4-0.4,0-0.4-1.4v-5.1h19.2V36.2
				z M37.6,31.4H18.4v-6.8h19.2V31.4z M37.6,23.2H18.4v-6.8h19.2V23.2z M34.9,35.5h-9.6v1.4h9.6V35.5z M34.9,27.3h-9.6v1.4h9.6V27.3
				z M34.9,19.1h-9.6v1.4h9.6V19.1z"/>
		</g>
	</g>
	<path class="st2" d="M23.2,37h-1.4c-0.5,0-0.8-0.4-0.8-0.8l0,0c0-0.5,0.4-0.8,0.8-0.8h1.4c0.5,0,0.8,0.4,0.8,0.8l0,0
		C24,36.8,23.6,37,23.2,37z"/>
	<path class="st2" d="M23.2,28.8h-1.4c-0.5,0-0.8-0.4-0.8-0.8l0,0c0-0.5,0.4-0.8,0.8-0.8h1.4c0.5,0,0.8,0.4,0.8,0.8l0,0
		C24,28.5,23.6,28.8,23.2,28.8z"/>
	<path class="st2" d="M23.2,20.6h-1.4c-0.5,0-0.8-0.4-0.8-0.8l0,0c0-0.5,0.4-0.8,0.8-0.8h1.4c0.5,0,0.8,0.4,0.8,0.8l0,0
		C24,20.3,23.6,20.6,23.2,20.6z"/>
</g>
</svg>
