<?xml version="1.0" encoding="utf-8"?>
<!-- Generator: Adobe Illustrator 21.1.0, SVG Export Plug-In . SVG Version: 6.00 Build 0)  -->
<svg version="1.1" id="Layer_1" xmlns="http://www.w3.org/2000/svg" xmlns:xlink="http://www.w3.org/1999/xlink" x="0px" y="0px"
	 viewBox="0 0 56 56" style="enable-background:new 0 0 56 56;" xml:space="preserve">
<style type="text/css">
	.st0{fill:#FFFFFF;}
	.st1{fill:#666EB2;}
	.st2{fill:#669CFE;}
	.st3{fill:#3FE7FE;}
	.st4{fill:#000E0F;}
	.st5{fill:#6A9EFE;}
</style>
<g>
	<path class="st0" d="M28,54.8c-14.8,0-26.8-12-26.8-26.8S13.2,1.2,28,1.2s26.8,12,26.8,26.8S42.8,54.8,28,54.8z"/>
	<path class="st1" d="M28,2.5c14.1,0,25.5,11.4,25.5,25.5S42.1,53.5,28,53.5S2.5,42.1,2.5,28S13.9,2.5,28,2.5 M28,0
		C12.5,0,0,12.5,0,28s12.5,28,28,28s28-12.5,28-28S43.5,0,28,0L28,0z"/>
</g>
<g id="Layer_2">
	<path class="st2" d="M44,28.1c0,1-0.8,1.8-1.8,1.8s-1.8-0.8-1.8-1.8c0-1,0.8-1.8,1.8-1.8S44,27.1,44,28.1"/>
	<path class="st3" d="M40.3,31.6c0,1-0.8,1.8-1.8,1.8s-1.8-0.8-1.8-1.8c0-1,0.8-1.8,1.8-1.8S40.3,30.7,40.3,31.6"/>
	<path class="st4" d="M36.7,35.3c0,1-0.8,1.8-1.8,1.8s-1.8-0.8-1.8-1.8s0.8-1.8,1.8-1.8C36,33.5,36.7,34.2,36.7,35.3"/>
	<path class="st2" d="M40.3,24.4c0,0.9-0.8,1.7-1.7,1.7c-0.9,0-1.7-0.8-1.7-1.7s0.8-1.5,1.7-1.5C39.5,22.9,40.3,23.5,40.3,24.4"/>
	<path class="st3" d="M36.6,28c0,0.9-0.8,1.7-1.7,1.7c-0.9,0-1.7-0.8-1.7-1.7s0.8-1.7,1.7-1.7C36,26.3,36.6,27.1,36.6,28"/>
	<path class="st4" d="M33.1,31.7c0,0.9-0.8,1.7-1.7,1.7s-1.7-0.8-1.7-1.7c0-0.9,0.8-1.7,1.7-1.7S33.1,30.8,33.1,31.7"/>
	<path class="st2" d="M36.5,20.9c0,0.8-0.6,1.5-1.5,1.5c-0.9,0-1.5-0.6-1.5-1.5c0-0.8,0.6-1.5,1.5-1.5
		C35.9,19.3,36.5,20.1,36.5,20.9"/>
	<path class="st3" d="M32.9,24.4c0,0.8-0.6,1.5-1.5,1.5c-0.8,0-1.5-0.6-1.5-1.5c0-0.8,0.6-1.5,1.5-1.5C32.3,23,32.9,23.7,32.9,24.4"
		/>
	<path class="st4" d="M29.4,28.1c0,0.8-0.6,1.5-1.5,1.5c-0.8,0-1.5-0.6-1.5-1.5c0-0.8,0.6-1.5,1.5-1.5
		C28.7,26.6,29.4,27.2,29.4,28.1"/>
	<path class="st2" d="M32.8,17.3c0,0.8-0.6,1.3-1.3,1.3c-0.6,0-1.3-0.6-1.3-1.3c0-0.8,0.6-1.3,1.3-1.3C32.2,16,32.8,16.5,32.8,17.3"
		/>
	<path class="st3" d="M29.2,20.9c0,0.8-0.6,1.3-1.3,1.3c-0.8,0-1.3-0.6-1.3-1.3c0-0.8,0.6-1.3,1.3-1.3S29.2,20.1,29.2,20.9"/>
	<path class="st4" d="M25.7,24.6c0,0.8-0.6,1.3-1.3,1.3c-0.6,0-1.3-0.6-1.3-1.3c0-0.8,0.6-1.3,1.3-1.3C25,23.3,25.7,23.8,25.7,24.6"
		/>
	<path class="st5" d="M25.5,31.7c0,0.6-0.5,1.1-1.1,1.1s-1.1-0.5-1.1-1.1c0-0.6,0.5-1.1,1.1-1.1C24.9,30.4,25.5,31.1,25.5,31.7"/>
	<path class="st5" d="M29.1,35.3c0,0.6-0.5,1.1-1.1,1.1c-0.6,0-1.1-0.5-1.1-1.1s0.5-1.1,1.1-1.1C28.5,34,29.1,34.6,29.1,35.3"/>
	<path class="st5" d="M32.7,38.8c0,0.6-0.5,1.1-1.1,1.1c-0.6,0-1.1-0.5-1.1-1.1c0-0.6,0.5-1.1,1.1-1.1
		C32.2,37.7,32.7,38.2,32.7,38.8"/>
	<path class="st5" d="M25.5,38.8c0,0.6-0.5,1.1-1.1,1.1s-1.1-0.5-1.1-1.1c0-0.6,0.5-1.1,1.1-1.1C25,37.5,25.5,38.2,25.5,38.8"/>
	<path class="st5" d="M18.3,38.8c0,0.6-0.5,1.1-1.1,1.1S16,39.5,16,38.8c0-0.6,0.5-1.1,1.1-1.1C17.8,37.5,18.3,38.2,18.3,38.8"/>
	<path class="st5" d="M21.9,35.3c0,0.6-0.5,1.1-1.1,1.1s-1.1-0.5-1.1-1.1s0.5-1.1,1.1-1.1C21.3,34,21.9,34.6,21.9,35.3"/>
	<path class="st3" d="M25.5,17.3c0,0.6-0.5,1.3-1.3,1.3c-0.8,0-1.3-0.5-1.3-1.3c0-0.6,0.5-1.3,1.3-1.3C25,16,25.5,16.7,25.5,17.3"/>
	<path class="st4" d="M21.9,21c0,0.6-0.5,1.3-1.3,1.3c-0.6,0-1.3-0.5-1.3-1.3c0-0.6,0.5-1.3,1.3-1.3C21.3,19.7,21.9,20.2,21.9,21"/>
	<path class="st4" d="M18.2,17.3c0,0.5-0.5,1-1,1s-1-0.5-1-1c0-0.5,0.5-1,1-1S18.2,16.8,18.2,17.3"/>
</g>
</svg>
