<?xml version="1.0" encoding="utf-8"?>
<!-- Generator: Adobe Illustrator 21.1.0, SVG Export Plug-In . SVG Version: 6.00 Build 0)  -->
<svg version="1.1" id="Layer_1" xmlns="http://www.w3.org/2000/svg" xmlns:xlink="http://www.w3.org/1999/xlink" x="0px" y="0px"
	 viewBox="0 0 56 56" style="enable-background:new 0 0 56 56;" xml:space="preserve">
<style type="text/css">
	.st0{fill:#FFFFFF;}
	.st1{fill:#B6B9C1;}
	.st2{fill:#2D7397;}
</style>
<g>
	<path class="st0" d="M28,54.8c-14.8,0-26.8-12-26.8-26.8S13.2,1.2,28,1.2s26.8,12,26.8,26.8S42.8,54.8,28,54.8z"/>
	<path class="st1" d="M28,2.5c14.1,0,25.5,11.4,25.5,25.5S42.1,53.5,28,53.5S2.5,42.1,2.5,28S13.9,2.5,28,2.5 M28,0
		C12.5,0,0,12.5,0,28s12.5,28,28,28s28-12.5,28-28S43.5,0,28,0L28,0z"/>
</g>
<g id="Layer_5">
	<g>
		<g>
			<path class="st2" d="M44.1,42.7c-0.3-0.3-0.4-0.4-0.7-0.7c-0.7-0.8-1.3-1.6-2.1-2.1c-0.7-0.5-2.1-1.1-2.4-1.9l0,0
				c0.4,0,1.1-0.3,1.5-0.4c0.7-0.1,1.3-0.1,2.1-0.4c0.3-0.1,0.7-0.1,0.9-0.3v-0.1c-0.4-0.4-0.7-0.9-1.1-1.2
				c-1.1-0.9-2.3-1.9-3.5-2.7c-0.7-0.4-1.5-0.7-2.1-1.1c-0.3-0.1-0.7-0.1-0.8-0.4c-0.4-0.5-0.5-1.1-0.8-1.6
				c-0.5-1.2-1.2-2.4-1.7-3.7c-0.4-0.8-0.5-1.7-1.1-2.4c-2.3-3.7-4.7-5.9-8.3-8c-0.8-0.4-1.7-0.7-2.7-0.9c-0.5,0-1.1,0-1.6-0.1
				c-0.3-0.1-0.5-0.5-0.8-0.7c-1.2-0.8-4.3-2.4-5.2-0.3c-0.5,1.3,0.8,2.8,1.3,3.5c0.4,0.5,0.8,1.1,1.1,1.6c0.1,0.4,0.1,0.7,0.4,1.1
				c0.4,0.9,0.7,2,1.1,2.8c0.3,0.4,0.5,0.9,0.8,1.3c0.1,0.3,0.5,0.4,0.5,0.7c-0.3,0.4-0.3,1.1-0.5,1.6c-0.8,2.4-0.4,5.3,0.7,7.1
				c0.3,0.5,1.1,1.7,2.1,1.2c0.9-0.4,0.7-1.6,0.9-2.7c0-0.3,0-0.4,0.1-0.5l0,0c0.3,0.5,0.5,1.2,0.8,1.7c0.7,1.1,1.7,2.1,2.7,2.8
				c0.5,0.4,0.9,1.1,1.5,1.2l0,0l0,0c-0.1-0.1-0.3-0.3-0.5-0.4c-0.4-0.4-0.8-0.8-1.1-1.2c-0.8-1.2-1.6-2.5-2.3-3.9
				c-0.4-0.7-0.7-1.3-0.9-2c-0.1-0.3-0.1-0.7-0.3-0.8c-0.3,0.5-0.8,0.9-0.9,1.5c-0.4,0.9-0.4,2-0.5,3.2c-0.1,0,0,0-0.1,0
				c-0.7-0.1-0.9-0.8-1.2-1.5c-0.7-1.5-0.8-4-0.1-5.7c0.1-0.4,0.8-1.9,0.5-2.3c-0.1-0.1-0.5-0.3-0.8-0.7c-0.3-0.4-0.5-0.9-0.7-1.3
				c-0.5-1.2-0.8-2.5-1.3-3.7c-0.3-0.5-0.7-1.1-1.1-1.6c-0.4-0.5-0.8-0.9-1.2-1.6c0-0.3-0.1-0.7,0-0.9c0-0.1,0.1-0.3,0.3-0.3
				c0.3-0.3,1.1,0.1,1.3,0.1c0.8,0.4,1.3,0.7,2,1.1c0.3,0.3,0.7,0.7,0.9,0.7h0.4c0.7,0.1,1.5,0,2,0.3c1.1,0.4,2.1,0.9,2.9,1.5
				c2.8,1.7,4.9,4.3,6.5,7.3c0.3,0.5,0.4,0.9,0.5,1.5c0.4,1.1,0.9,2.1,1.5,3.1c0.4,1.1,0.8,2,1.5,2.8c0.3,0.4,1.6,0.7,2.1,0.9
				c0.4,0.1,1.1,0.4,1.5,0.5c0.7,0.4,1.5,0.9,2.1,1.5c0.4,0.3,1.3,0.8,1.5,1.2c-1.7,0-2.9,0.1-4,0.5c-0.3,0.1-0.8,0.1-0.8,0.5
				c0.1,0.1,0.1,0.4,0.3,0.7c0.3,0.4,0.7,1.1,1.1,1.3c0.4,0.3,0.9,0.7,1.3,0.9c0.8,0.5,1.7,0.8,2.5,1.3c0.4,0.3,0.9,0.7,1.3,1.1
				c0.3,0.1,0.4,0.4,0.7,0.5l0,0C44.2,43.1,44.2,42.8,44.1,42.7z M19.8,18L19.8,18L19.8,18c0.3,0.4,0.5,0.7,0.7,0.9
				c0.1,0.4,0.4,0.7,0.5,1.1l0,0c0.3-0.3,0.4-0.5,0.4-1.1c0-0.3-0.1-0.4-0.1-0.5c-0.1-0.1-0.4-0.3-0.7-0.5
				C20.3,17.9,20.1,18,19.8,18z"/>
		</g>
	</g>
</g>
</svg>
