<?xml version="1.0" encoding="utf-8"?>
<!-- Generator: Adobe Illustrator 21.1.0, SVG Export Plug-In . SVG Version: 6.00 Build 0)  -->
<svg version="1.1" id="Layer_1" xmlns="http://www.w3.org/2000/svg" xmlns:xlink="http://www.w3.org/1999/xlink" x="0px" y="0px"
	 viewBox="0 0 56 56" style="enable-background:new 0 0 56 56;" xml:space="preserve">
<style type="text/css">
	.st0{display:none;}
	.st1{display:inline;fill:#FFFFFF;}
	.st2{display:inline;fill:#B6B9C1;}
	.st3{fill:#FFFFFF;}
	.st4{fill:#666EB2;}
	.st5{fill:#4A515C;}
</style>
<g class="st0">
	<path class="st1" d="M28,54.8c-14.8,0-26.8-12-26.8-26.8S13.2,1.2,28,1.2s26.8,12,26.8,26.8S42.8,54.8,28,54.8z"/>
	<path class="st2" d="M28,2.5c14.1,0,25.5,11.4,25.5,25.5S42.1,53.5,28,53.5S2.5,42.1,2.5,28S13.9,2.5,28,2.5 M28,0
		C12.5,0,0,12.5,0,28s12.5,28,28,28s28-12.5,28-28S43.5,0,28,0L28,0z"/>
</g>
<g>
	<path class="st3" d="M28,54.8c-14.8,0-26.8-12-26.8-26.8S13.2,1.2,28,1.2s26.8,12,26.8,26.8S42.8,54.8,28,54.8z"/>
	<path class="st4" d="M28,2.5c14.1,0,25.5,11.4,25.5,25.5S42.1,53.5,28,53.5S2.5,42.1,2.5,28S13.9,2.5,28,2.5 M28,0
		C12.5,0,0,12.5,0,28s12.5,28,28,28s28-12.5,28-28S43.5,0,28,0L28,0z"/>
</g>
<g>
	<g>
		<path class="st5" d="M36.2,17H19.8c-1.5,0-2.8,1.2-2.8,2.8v16.5c0,1.5,1.2,2.8,2.8,2.8h4.8c0,0,0,0,0,0s0,0,0,0h6.9c0,0,0,0,0,0
			s0,0,0,0h4.8c1.5,0,2.8-1.2,2.8-2.8V19.8C39,18.2,37.8,17,36.2,17z M20.4,18.4h15.1c1.1,0,2.1,0.9,2.1,2.1v3.4h-6.2c0,0,0,0,0,0
			s0,0,0,0h-6.9c0,0,0,0,0,0s0,0,0,0h-6.2v-3.4C18.4,19.3,19.3,18.4,20.4,18.4z M30.8,25.3v12.4h-5.5V25.3H30.8z M18.4,35.6V25.3
			h5.5v12.4h-3.4C19.3,37.6,18.4,36.7,18.4,35.6z M35.6,37.6h-3.4V25.3h5.5v10.3C37.6,36.7,36.7,37.6,35.6,37.6z"/>
	</g>
</g>
</svg>
