<?xml version="1.0" encoding="UTF-8"?>
<svg viewBox="0 0 537 69" version="1.1" xmlns="http://www.w3.org/2000/svg" xmlns:xlink="http://www.w3.org/1999/xlink">
  <style type="text/css">
    .st0 {
      fill: #1A274B;
    }

    .st1 {
      fill: #272950;
    }

    .st2 {
      fill: #47DBF4;
    }

    .st3 {
      fill: #7575EA;
    }
  </style>
    <g id="Page-1" stroke="none" stroke-width="1" fill="none" fill-rule="evenodd">
        <g id="logo" fill-rule="nonzero" transform="translate(90, 20)">
            <path d="M239.62,11.11 C238.1395,10.7568151 236.622025,10.5822383 235.1,10.5897522 C228.58,10.5897522 225.28,13.59 225.28,19.59 C225.28,23.32 226.51,25.9 228.93,27.28 L228.8,27.53 C227.63,29.68 227.49,30.53 227.49,30.92 C227.40691,32.1239813 227.76209,33.3173877 228.49,34.28 C227.544628,35.0129824 226.706498,35.8746744 226,36.84 C225.29411,37.9151315 224.944269,39.1850557 225,40.47 C225,43.47 225.88,45.63 227.6,46.81 C229.32,47.99 232.09,48.52 236.2,48.52 C243.86,48.52 247.75,45.68 247.75,40.08 C247.75,37.02 246.96,34.92 245.42,33.81 C243.88,32.7 241.58,32.22 238.27,32.22 C234.27,32.22 233.14,32.02 232.83,31.9 C232.69,31.84 232.28,31.68 232.28,30.57 C232.389705,29.8272114 232.612274,29.1055487 232.94,28.43 C233.602786,28.5202531 234.271107,28.563694 234.94,28.56 C238.35,28.56 240.94,27.9 242.54,26.56 C244.14,25.22 245.06,22.87 245.06,19.61 C245.117656,18.1161747 244.772245,16.634361 244.06,15.32 L248.06,15.4 L248.06,11 L240.21,11.21 L239.62,11.11 Z M240.15,19.6 C240.15,21.38 239.79,22.6 239.06,23.33 C237.949133,24.1494327 236.573564,24.5271798 235.2,24.39 C233.812509,24.5267382 232.423454,24.1456386 231.3,23.32 C230.56,22.63 230.19,21.38 230.19,19.63 C230.050742,18.287036 230.453979,16.9441133 231.31,15.9 C232.06,15.18 233.36,14.82 235.2,14.82 C237.04,14.82 238.33,15.17 239.06,15.88 C239.79,16.59 240.15,17.83 240.15,19.6 Z M229.84,40.17 C229.810375,39.4951038 229.973388,38.825709 230.31,38.24 C230.82591,37.5431697 231.45859,36.9409395 232.18,36.46 L237.31,36.69 C240.15,36.69 241.31,37.05 241.83,37.34 C242.35,37.63 242.77,38.64 242.77,40.1 C242.892341,41.3169205 242.349695,42.5053915 241.35,43.21 C240.35,43.86 238.54,44.21 236.06,44.21 C233.58,44.21 231.89,43.9 231.06,43.31 C230.157024,42.5309478 229.699869,41.354336 229.84,40.17 Z" id="Shape" fill="#47DBF4"></path>
            <path d="M256.25,13.92 L256.25,11.09 L251.39,11.09 L251.39,36.94 L256.3,36.94 L256.3,18.62 L257.21,18.14 C258.293802,17.5868906 259.412897,17.1058471 260.56,16.7 C261.925995,16.1790178 263.334608,15.7775128 264.77,15.5 L265.27,15.4 L265.27,10.4 L264.54,10.55 C261.591465,11.1491009 258.780235,12.2919048 256.25,13.92 L256.25,13.92 Z" id="Path" fill="#47DBF4"></path>
            <path d="M287,31.75 L287,19.14 C287,16.26 286.3,14.09 284.93,12.7 C283.56,11.31 281.36,10.59 278.41,10.59 C275.14194,10.6397457 271.886526,11.0081568 268.69,11.69 L268.17,11.79 L268.38,15.79 L270.55,15.58 C273.241955,15.2641474 275.949599,15.1005537 278.66,15.09 C279.589665,15.0320333 280.50186,15.3614372 281.18,16 C281.882852,16.8987213 282.20913,18.0353155 282.09,19.17 L282.09,20.7 L274.9,21.39 C272.686735,21.4645932 270.557151,22.2539778 268.83,23.64 C267.49,24.89 266.83,26.82 266.83,29.38 C266.694746,31.5303131 267.385022,33.6512124 268.76,35.31 C270.241634,36.7914537 272.289057,37.563791 274.38,37.43 C277.392208,37.405992 280.36848,36.7733217 283.13,35.57 C284.835276,36.9028161 286.969846,37.5645327 289.13,37.43 L289.71,37.43 L289.92,33.43 L289.36,33.36 C287.38,33.06 287.09,32.27 287,31.75 Z M282.09,24.75 L282.09,31.75 L281.37,32 C279.310167,32.7236447 277.143244,33.0955035 274.96,33.1 C273.62,33.1 271.83,32.7 271.83,29.18 C271.758532,28.1939755 272.050188,27.2158613 272.65,26.43 C273.421543,25.7359724 274.422238,25.3513637 275.46,25.35 L282.09,24.75 Z" id="Shape" fill="#47DBF4"></path>
            <path d="M305,10.59 C302.557734,10.6501442 300.162274,11.2729638 298,12.41 L298,11.09 L293.14,11.09 L293.14,36.94 L298,36.94 L298,16.71 L298.59,16.43 C299.424465,16.0691612 300.287424,15.7781635 301.17,15.56 C302.202238,15.2710499 303.268127,15.1197407 304.34,15.11 C306.34,15.11 307.55,15.63 308.11,16.69 C308.67,17.75 309.05,20.12 309.05,23.42 L309.05,36.94 L313.91,36.94 L313.91,23.32 C313.91,18.63 313.33,15.43 312.12,13.54 C310.91,11.65 308.5,10.59 305,10.59 Z" id="Path" fill="#47DBF4"></path>
            <path d="M334.85,11.11 C333.052009,10.7778159 331.228368,10.6038171 329.4,10.59 C325.53,10.59 322.71,11.75 321,14.01 C319.29,16.27 318.49,19.84 318.49,24.73 C318.49,29.62 319.42,33.08 321.33,34.99 C322.168305,35.853093 323.195143,36.5102694 324.33,36.91 C325.50759,37.2774396 326.73663,37.4530167 327.97,37.43 C330.370183,37.3951883 332.727945,36.7920397 334.85,35.67 L334.85,36.94 L339.71,36.94 L339.71,0.35 L334.85,0.35 L334.85,11.11 Z M334.85,31.31 L334.22,31.59 C333.362543,31.9470684 332.480207,32.2411805 331.58,32.47 C329.93965,33.0091485 328.177603,33.0578047 326.51,32.61 L326.51,32.61 C325.946003,32.3640823 325.451388,31.9828167 325.07,31.5 C324.07,30.3 323.5,27.85 323.5,24.21 C323.5,20.99 323.97,18.6 324.89,17.12 C325.81,15.64 327.3,15 329.59,15 C331.353963,15.0157155 333.113486,15.1796255 334.85,15.49 L334.85,31.31 Z" id="Shape" fill="#47DBF4"></path>
            <polygon id="Path" fill="#47DBF4" points="362.88 32.52 361.98 32.52 356.22 11.09 351.01 11.09 358.3 36.94 366.61 36.94 373.9 11.09 368.84 11.09"></polygon>
            <rect id="Rectangle" fill="#47DBF4" x="377.22" y="1.23" width="4.91" height="5.5"></rect>
            <rect id="Rectangle" fill="#47DBF4" x="377.22" y="11.09" width="4.91" height="25.85"></rect>
            <path d="M397.83,10.59 C390.59,10.59 386.92,15.16 386.92,24.16 C386.92,28.61 387.71,31.95 389.25,34.1 C390.79,36.25 393.55,37.43 397.25,37.43 C400.493988,37.3827297 403.731195,37.1188088 406.94,36.64 L407.48,36.56 L407.34,32.45 L405.27,32.67 C402.77,32.86 400.27,32.96 397.86,32.96 C395.63,32.96 394.06,32.38 393.2,31.24 C392.252595,29.715873 391.782467,27.9433149 391.85,26.15 L408.1,26.15 L408.34,22.73 C408.34,18.63 407.46,15.55 405.72,13.58 C403.98,11.61 401.31,10.59 397.83,10.59 Z M403.42,22 L391.85,22 C391.95,19.58 392.47,17.79 393.39,16.69 C394.526805,15.4494494 396.172897,14.8035612 397.85,14.94 C399.85,14.94 401.25,15.47 402.1,16.57 C402.95,17.67 403.36,19.43 403.42,22 Z" id="Shape" fill="#47DBF4"></path>
            <polygon id="Path" fill="#47DBF4" points="441.54 11.09 436.66 32.31 430.86 11.58 426.09 11.58 420.31 32.22 415.41 11.09 410.46 11.09 416.61 36.94 423.72 36.94 428.47 19.39 433.23 36.94 440.34 36.94 446.49 11.09"></polygon>
            <path d="M28,10.31 C24.9202212,10.4534346 21.9108974,11.2800593 19.19,12.73 C17.79,11.01 15.81,10.31 12.52,10.31 C10.1305293,10.4363623 7.79839655,11.08854 5.69,12.22 L5.69,10.81 L0.93,10.81 L0.93,37 L5.71,37 L5.71,16.34 C7.6378334,15.3327986 9.76635215,14.7690657 11.94,14.69 C15.86,14.69 16.71,16.25 16.71,23.48 L16.71,37 L21.49,37 L21.49,23.38 C21.5520017,21.0097916 21.3879263,18.6390694 21,16.3 C23.0189581,15.3129654 25.223912,14.7642829 27.47,14.69 C31.35,14.69 32.24,16.3 32.24,23.28 L32.24,37 L37,37 L37,23.18 C37,14.64 35.58,10.31 28,10.31 Z" id="Path" fill="#272950"></path>
            <path d="M55.1,10.31 C47.8,10.31 44.1,14.93 44.1,24.03 C44.1,33.44 47.23,37.46 54.56,37.46 C57.8625962,37.3754828 61.1578127,37.1050547 64.43,36.65 L64.88,36.59 L64.75,32.59 L64.22,32.59 C64.17,32.59 58.72,33.04 55.01,33.04 C50.83,33.04 49.01,30.95 48.94,25.86 L65.49,25.86 L65.72,22.49 C65.71,14.32 62.24,10.31 55.1,10.31 Z M55.1,14.49 C58.61,14.49 60.82,15.75 60.93,21.92 L48.88,21.92 C49,16.79 51,14.49 55.1,14.49 Z" id="Shape" fill="#272950"></path>
            <path d="M86.26,32.83 C86.26,32.83 83.26,33.13 81.84,33.13 C79.16,33.13 78.73,32.21 78.73,26.6 L78.73,15.09 L86.73,15.09 L86.73,10.81 L78.73,10.81 L78.73,3.12 L74,3.12 L74,10.81 L70.44,10.81 L70.44,15.09 L74,15.09 L74,27.8 C74,35.15 75.81,37.51 81.45,37.51 C83.1961787,37.4260879 84.9358756,37.2390955 86.66,36.95 L87.12,36.87 L86.79,32.78 L86.26,32.83 Z" id="Path" fill="#272950"></path>
            <path d="M111.34,31.76 L111.34,18.91 C111.34,13.04 108.61,10.31 102.75,10.31 C99.3919789,10.4067457 96.047496,10.7779833 92.75,11.42 L92.32,11.51 L92.53,15.35 L93.06,15.29 C93.12,15.29 99.06,14.64 102.5,14.64 C105.39,14.64 106.5,15.83 106.5,18.91 L106.5,20.61 L99.07,21.32 C93.43,21.87 90.92,24.32 90.92,29.26 C90.92,34.55 93.62,37.46 98.51,37.46 C101.580996,37.3610489 104.609178,36.7107012 107.45,35.54 C108.94,36.9 110.73,37.46 113.54,37.46 L114.02,37.46 L114.22,33.54 L113.76,33.48 C111.74,33.22 111.4,32.47 111.34,31.76 Z M99.18,33.28 C96.98,33.28 95.86,31.89 95.86,29.16 C95.86,26.43 96.97,25.41 99.68,25.16 L106.56,24.51 L106.56,31.89 C104.182424,32.7163009 101.695267,33.184749 99.18,33.28 L99.18,33.28 Z" id="Shape" fill="#272950"></path>
            <path d="M133.6,32.83 C133.6,32.83 130.54,33.13 129.18,33.13 C126.5,33.13 126.06,32.21 126.06,26.6 L126.06,15.09 L134.06,15.09 L134.06,10.81 L126.06,10.81 L126.06,3.12 L121.33,3.12 L121.33,10.81 L117.76,10.81 L117.76,15.09 L121.33,15.09 L121.33,27.8 C121.33,35.15 123.14,37.51 128.78,37.51 C130.528487,37.4423845 132.271491,37.2720911 134,37 L134.46,36.92 L134.13,32.83 L133.6,32.83 Z" id="Path" fill="#272950"></path>
            <path d="M144.66,13.81 L144.66,10.81 L139.92,10.81 L139.92,37 L144.71,37 L144.71,18.31 C147.471109,16.8592636 150.409045,15.7735048 153.45,15.08 L153.86,15 L153.86,10.15 L153.25,10.27 C150.207494,10.9570473 147.303169,12.1539403 144.66,13.81 L144.66,13.81 Z" id="Path" fill="#272950"></path>
            <path d="M169.23,10.31 C161.33,10.31 157.97,14.31 157.97,23.58 C157.97,32.15 159.85,37.46 169.23,37.46 C178.61,37.46 180.49,32.15 180.49,23.58 C180.49,14.28 177.12,10.31 169.23,10.31 Z M169.23,14.59 C174.12,14.59 175.61,16.69 175.61,23.59 C175.61,30.79 174.69,33.19 169.23,33.19 C163.77,33.19 162.85,30.67 162.85,23.59 C162.85,16.69 164.34,14.59 169.23,14.59 Z" id="Shape" fill="#272950"></path>
            <path d="M199.88,10.31 C197.345181,10.4456024 194.866157,11.1062213 192.6,12.25 L192.6,10.81 L187.87,10.81 L187.87,37 L192.65,37 L192.65,16.35 C194.706803,15.3526994 196.946254,14.7877313 199.23,14.69 C203.23,14.69 204.15,16.3 204.15,23.28 L204.15,37 L208.88,37 L208.88,23.18 C208.88,14.46 207.54,10.31 199.88,10.31 Z" id="Path" fill="#272950"></path>
        </g>
      <g>
        <path d="M0.3,55.8c0.2,0.2,0.5,0.3,0.7,0.3h62.7c0.3,0,0.5-0.1,0.7-0.3L32.5,27.9L0.3,55.8z" fill="#272950"></path>
        <path d="M64.9,55V2c0-0.9-1.1-1.4-1.8-0.8L32.8,27.6l-0.3,0.3l32.1,27.9C64.8,55.6,64.9,55.3,64.9,55z" fill="#47DBF4"></path>
        <path d="M32.1,27.6L1.8,1.2C1.1,0.6,0,1.1,0,2v52.6V55c0,0.3,0.1,0.6,0.3,0.8l32.1-27.9L32.1,27.6z" fill="#7575EA"></path>
      </g>
    </g>
</svg>
