<svg xmlns="http://www.w3.org/2000/svg" width="30" height="30" viewBox="0 0 30 30">
    <g fill="#FFF" fill-rule="evenodd">
        <path fill-rule="nonzero" d="M26 2.5c0-.1-.1-.3-.1-.4-.1 0-.4-.1-.5-.1H4.7c-.3 0-.4.1-.5.3 0 .1-.1.1-.1.3V25c0 1.6 0 1.5.8 2.3.5.4 1.2.7 2.6.7h13.3c3.3 0 5.2-1.6 5.2-4.8V2.5c0 .2 0 .2 0 0zm-1.4 20.7c0 2.3-1.2 3.4-3.8 3.4H7.4c-.8 0-1.4-.1-1.6-.4-.4-.4-.4 0-.4-1.4v-5.1h19.2v3.5zm0-4.8H5.4v-6.8h19.2v6.8zm0-8.2H5.4V3.4h19.2v6.8zm-2.7 12.3h-9.6v1.4h9.6v-1.4zm0-8.2h-9.6v1.4h9.6v-1.4zm0-8.2h-9.6v1.4h9.6V6.1z"/>
        <path d="M10.2 24H8.8c-.5 0-.8-.4-.8-.8 0-.5.4-.8.8-.8h1.4c.5 0 .8.4.8.8 0 .6-.4.8-.8.8zM10.2 15.8H8.8c-.5 0-.8-.4-.8-.8 0-.5.4-.8.8-.8h1.4c.5 0 .8.4.8.8 0 .5-.4.8-.8.8zM10.2 7.6H8.8c-.5 0-.8-.4-.8-.8 0-.5.4-.8.8-.8h1.4c.5 0 .8.4.8.8 0 .5-.4.8-.8.8z"/>
    </g>
</svg>
