<?xml version="1.0" encoding="utf-8"?>
<!-- Generator: Adobe Illustrator 21.1.0, SVG Export Plug-In . SVG Version: 6.00 Build 0)  -->
<svg version="1.1" id="Layer_1" xmlns="http://www.w3.org/2000/svg" xmlns:xlink="http://www.w3.org/1999/xlink" x="0px" y="0px"
	 viewBox="0 0 56 56" style="enable-background:new 0 0 56 56;" xml:space="preserve">
<style type="text/css">
	.st0{fill:#FFFFFF;}
	.st1{fill:#B6B9C1;}
	.st2{fill:#EA1B22;}
</style>
<g>
	<path class="st0" d="M28,54.8c-14.8,0-26.8-12-26.8-26.8S13.2,1.2,28,1.2s26.8,12,26.8,26.8S42.8,54.8,28,54.8z"/>
	<path class="st1" d="M28,2.5c14.1,0,25.5,11.4,25.5,25.5S42.1,53.5,28,53.5S2.5,42.1,2.5,28S13.9,2.5,28,2.5 M28,0
		C12.5,0,0,12.5,0,28s12.5,28,28,28s28-12.5,28-28S43.5,0,28,0L28,0z"/>
</g>
<g id="Layer_7">
	<g>
		<g>
			<path class="st2" d="M40.7,14H15.3c-0.8,0-1.3,0.5-1.3,1.3v25.3c0,0.8,0.5,1.3,1.3,1.3h25.3c0.8,0,1.3-0.5,1.3-1.3V15.3
				C42,14.5,41.5,14,40.7,14z M32.1,35.3h-8.3c-4,0-7.2-3.3-7.2-7.3s3.2-7.3,7.2-7.3h8.3c4,0,7.2,3.3,7.2,7.3S36.1,35.3,32.1,35.3z
				 M32,23.2h-8c-2.5,0-4.7,2.1-4.7,4.8s2.1,4.8,4.7,4.8h8c2.5,0,4.7-2.1,4.7-4.8S34.5,23.2,32,23.2z"/>
		</g>
	</g>
</g>
</svg>
