<?xml version="1.0" encoding="utf-8"?>
<!-- Generator: Adobe Illustrator 21.1.0, SVG Export Plug-In . SVG Version: 6.00 Build 0)  -->
<svg version="1.1" id="Layer_1" xmlns="http://www.w3.org/2000/svg" xmlns:xlink="http://www.w3.org/1999/xlink" x="0px" y="0px"
	 viewBox="0 0 56 56" style="enable-background:new 0 0 56 56;" xml:space="preserve">
<style type="text/css">
	.st0{fill:#FFFFFF;}
	.st1{fill:#B6B9C1;}
	.st2{fill:#00B3C1;}
</style>
<g>
	<path class="st0" d="M28,54.8c-14.8,0-26.8-12-26.8-26.8S13.2,1.2,28,1.2s26.8,12,26.8,26.8S42.8,54.8,28,54.8z"/>
	<path class="st1" d="M28,2.5c14.1,0,25.5,11.4,25.5,25.5S42.1,53.5,28,53.5S2.5,42.1,2.5,28S13.9,2.5,28,2.5 M28,0
		C12.5,0,0,12.5,0,28s12.5,28,28,28s28-12.5,28-28S43.5,0,28,0L28,0z"/>
</g>
<g>
	<path class="st2" d="M32.2,38.6h-5.4c-0.4,0-0.7-0.3-0.7-0.7s0.3-0.7,0.7-0.7h5.4c2.5,0,8.5-2.9,8.5-10c0-8-7.1-8.3-7.4-8.3H21.6
		c-0.4,0-0.7-0.3-0.7-0.7c0-0.4,0.3-0.7,0.7-0.7h11.7c0.1,0,8.8,0.4,8.8,9.8C42.1,34.8,35.8,38.6,32.2,38.6z"/>
	<path class="st2" d="M28.8,34.4H18.1c-0.4,0-0.7-0.3-0.7-0.7s0.3-0.7,0.7-0.7h10.7c2.1,0,6.9-0.5,6.9-5.5c0-4.2-4.5-4.2-4.7-4.2H20
		c-0.4,0-0.7-0.3-0.7-0.7c0-0.4,0.3-0.7,0.7-0.7h11c2.1,0,6.1,1.2,6.1,5.7C37.2,32.5,32.9,34.4,28.8,34.4z"/>
	<path class="st2" d="M23.5,38.6h-2c-0.4,0-0.7-0.3-0.7-0.7s0.3-0.7,0.7-0.7h2c0.4,0,0.7,0.3,0.7,0.7S23.9,38.6,23.5,38.6z"/>
	<path class="st2" d="M17,23.2h-2.1c-0.4,0-0.7-0.3-0.7-0.7c0-0.4,0.3-0.7,0.7-0.7H17c0.4,0,0.7,0.3,0.7,0.7
		C17.7,22.9,17.4,23.2,17,23.2z"/>
</g>
</svg>
