<?xml version="1.0" encoding="utf-8"?>
<!-- Generator: Adobe Illustrator 21.1.0, SVG Export Plug-In . SVG Version: 6.00 Build 0)  -->
<svg version="1.1" id="Layer_1" xmlns="http://www.w3.org/2000/svg" xmlns:xlink="http://www.w3.org/1999/xlink" x="0px" y="0px"
	 viewBox="0 0 56 56" style="enable-background:new 0 0 56 56;" xml:space="preserve">
<style type="text/css">
	.st0{fill:#FFFFFF;}
	.st1{fill:#B6B9C1;}
	.st2{fill:#A9B0C0;}
</style>
<g>
	<path class="st0" d="M28,54.8c-14.8,0-26.8-12-26.8-26.8S13.2,1.2,28,1.2s26.8,12,26.8,26.8S42.8,54.8,28,54.8z"/>
	<path class="st1" d="M28,2.5c14.1,0,25.5,11.4,25.5,25.5S42.1,53.5,28,53.5S2.5,42.1,2.5,28S13.9,2.5,28,2.5 M28,0
		C12.5,0,0,12.5,0,28s12.5,28,28,28s28-12.5,28-28S43.5,0,28,0L28,0z"/>
</g>
<path class="st2" d="M39.6,19.7L30,14.5c-1.1-0.7-2.4-0.7-3.6,0l-9.6,5.3c-1.3,0.5-2.1,1.7-2.1,3.1v10.3c0,1.3,0.7,2.5,1.9,3.2
	l9.6,5.2c1.1,0.7,2.4,0.7,3.6,0l9.6-5.3c1.2-0.7,1.9-1.9,1.9-3.2V22.8C41.5,21.6,40.7,20.3,39.6,19.7z M34,31.1
	c-0.4,1.3-1.1,2.5-2.1,3.2c-1.1,0.8-2.3,1.1-3.7,1.1c-1.3,0-2.4-0.3-3.3-0.9c-0.9-0.5-1.5-1.2-2-1.9c-0.1-0.3-0.3-0.4-0.3-0.7
	c-0.1-0.3-0.1-0.5-0.3-0.8c-0.1-0.5-0.1-1.7-0.1-3.3c0-1.7,0-2.8,0.1-3.3c0.3-0.5,0.4-0.9,0.7-1.3c0.4-0.7,1.1-1.3,1.9-1.9
	c0.8-0.4,1.9-0.7,3.2-0.7c1.6,0,2.9,0.4,4,1.3c1.1,0.8,1.6,1.9,1.9,3.2l0.1,0.4h-3.3v-0.4c-0.1-0.5-0.5-0.9-0.9-1.3
	c-0.4-0.3-1.1-0.5-1.7-0.5c-0.5,0-0.9,0.1-1.2,0.3c-0.4,0.1-0.7,0.4-0.8,0.7c-0.3,0.3-0.4,0.7-0.5,1.1c-0.1,0.5-0.3,1.5-0.3,2.8
	s0,2.3,0.1,2.8c0.1,0.4,0.3,0.8,0.5,1.1c0.3,0.3,0.5,0.5,0.8,0.7c0.4,0.1,0.8,0.3,1.2,0.3c1.2,0,2-0.5,2.7-1.7l0.1-0.3h3.2v0.3H34z"
	/>
</svg>
