<?xml version="1.0" encoding="utf-8"?>
<!-- Generator: Adobe Illustrator 21.1.0, SVG Export Plug-In . SVG Version: 6.00 Build 0)  -->
<svg version="1.1" id="Layer_1" xmlns="http://www.w3.org/2000/svg" xmlns:xlink="http://www.w3.org/1999/xlink" x="0px" y="0px"
	 viewBox="0 0 56 56" style="enable-background:new 0 0 56 56;" xml:space="preserve">
<style type="text/css">
	.st0{fill:#4A515C;}
	.st1{fill:#FFFFFF;}
</style>
<g>
	<g>
		<g>
			<path class="st0" d="M37.6,35.6c0,1.1-0.9,2.1-2.1,2.1h-3.4V25.3h0.5c-0.6-0.4-1.1-0.9-1.5-1.4h-6.5l0,0l0,0h-6.2v-3.4
				c0-1.1,0.9-2.1,2.1-2.1h9c0-0.5,0.1-0.9,0.3-1.4h-9.9c-1.5,0-2.7,1.2-2.7,2.7v16.5c0,1.5,1.2,2.7,2.7,2.7h4.8l0,0l0,0h6.9l0,0
				l0,0h4.8c1.5,0,2.7-1.2,2.7-2.7v-9.9c-0.4,0.1-0.9,0.2-1.4,0.3L37.6,35.6L37.6,35.6z M23.9,37.6h-3.4c-1.1,0-2.1-0.9-2.1-2.1
				V25.3h5.5V37.6z M30.8,37.6h-5.5V25.3h5.5V37.6z M36.9,12.9c-3.4,0-6.2,2.8-6.2,6.2s2.8,6.2,6.2,6.2s6.2-2.8,6.2-6.2
				C43.1,15.6,40.4,12.9,36.9,12.9z"/>
		</g>
	</g>
	<path class="st1" d="M38,19.6c0.3-0.1,0.5-0.3,0.7-0.6c0.2-0.2,0.3-0.6,0.3-1c0-0.3-0.1-0.5-0.2-0.7c-0.1-0.2-0.3-0.3-0.4-0.5
		c-0.2-0.1-0.4-0.2-0.6-0.2c-0.2,0-0.5-0.1-0.8-0.1h-2v5.2h1.3v-1.9h0.5l1.5,1.9h1.6L38,19.6z M37.6,18.5c0,0.1-0.1,0.2-0.2,0.2
		c-0.1,0.1-0.2,0.1-0.3,0.1s-0.3,0-0.5,0h-0.4v-1.4h0.4c0.2,0,0.3,0,0.4,0c0.1,0,0.2,0,0.3,0.1s0.2,0.1,0.3,0.2s0.1,0.2,0.1,0.3
		C37.7,18.3,37.7,18.4,37.6,18.5z"/>
</g>
</svg>
