<?xml version="1.0" encoding="utf-8"?>
<!-- Generator: Adobe Illustrator 21.1.0, SVG Export Plug-In . SVG Version: 6.00 Build 0)  -->
<svg version="1.1" id="Layer_1" xmlns="http://www.w3.org/2000/svg" xmlns:xlink="http://www.w3.org/1999/xlink" x="0px" y="0px"
	 viewBox="0 0 56 56" style="enable-background:new 0 0 56 56;" xml:space="preserve">
<style type="text/css">
	.st0{fill:#FFFFFF;}
	.st1{fill:#666EB2;}
	.st2{fill:#336791;}
	.st3{fill:none;stroke:#FFFFFF;stroke-width:3;stroke-linecap:round;stroke-linejoin:round;}
</style>
<g>
	<path class="st0" d="M28,54.8c-14.8,0-26.8-12-26.8-26.8S13.2,1.2,28,1.2s26.8,12,26.8,26.8S42.8,54.8,28,54.8z"/>
	<path class="st1" d="M28,2.5c14.1,0,25.5,11.4,25.5,25.5S42.1,53.5,28,53.5S2.5,42.1,2.5,28S13.9,2.5,28,2.5 M28,0
		C12.5,0,0,12.5,0,28s12.5,28,28,28s28-12.5,28-28S43.5,0,28,0L28,0z"/>
</g>
<g id="Layer_4_1_">
	<g id="Layer_x0020_3_1_">
		<g>
			<path d="M35.2,35.9c0.1-1.6,0.1-1.9,1.3-1.6h0.3c0.9,0,2.1-0.1,2.8-0.5c1.5-0.7,2.4-1.9,0.9-1.6c-3.5,0.7-3.6-0.4-3.6-0.4
				c3.6-5.3,5.1-12.1,3.9-13.9c-3.6-4.5-9.7-2.4-9.7-2.4l0,0c-0.7-0.1-1.5-0.3-2.3-0.3c-1.6,0-2.7,0.4-3.6,1.1
				c0,0-10.9-4.5-10.4,5.7c0,2.3,2.9,16.7,6.5,12.3c1.3-1.6,2.5-2.9,2.5-2.9c0.7,0.4,1.3,0.7,2.1,0.5l0,0c0,0.1,0,0.4,0,0.7
				c-0.9,1.1-0.7,1.2-2.5,1.6c-1.9,0.4-0.8,1.1,0,1.2c0.8,0.3,2.9,0.5,4.3-1.3v0.3c0.4,0.3,0.4,2.1,0.4,3.3c0,1.3,0.1,2.5,0.4,3.2
				c0.3,0.7,0.5,2.5,2.9,2C33.6,42.3,35.1,41.8,35.2,35.9"/>
			<path class="st2" d="M30.8,44.2c-0.8,0-1.6-0.1-2.3-0.8c-0.7-0.7-0.9-1.5-1.1-1.9c0-0.1,0-0.1,0-0.1c-0.3-0.8-0.4-2-0.5-3.6
				c0-0.3,0-0.5,0-0.7s0-0.3,0-0.5c-1.1,0.4-2.3,0.5-3.6,0.3c-0.4-0.1-0.7-0.3-1.1-0.4c-0.3-0.1-0.4-0.3-0.5-0.4
				c-1.1,0.9-2,0.8-2.5,0.5c-0.9-0.3-1.9-1.2-2.7-2.8c-0.5-1.1-1.1-2.5-1.6-4.1c-0.9-3.2-1.5-6.4-1.6-7.3c-0.1-3.3,0.8-5.6,2.7-6.9
				c1.5-1.1,3.6-1.5,6.3-0.9c1.1,0.1,2.1,0.5,2.7,0.7c1.1-0.7,2.4-0.9,3.7-0.9c0.8,0,1.5,0.1,2.1,0.3c0.7-0.3,2.1-0.5,3.7-0.5
				c2.9,0,5.5,1.2,7.2,3.3c0.7,0.8,1.2,2.7,0.1,6.7c-0.5,2.4-1.6,5.1-3.1,7.3c0.4,0,0.8,0,1.5-0.3c0.4-0.1,0.7-0.1,0.9,0
				c0.5,0.1,1.1,0.4,1.2,0.9c0.5,1.6-1.7,2.7-2.4,3.1c-0.8,0.4-2.3,0.7-3.5,0.5l0,0h-0.3v0.1c0,0.1,0,0.1,0,0.3
				c-0.1,2.9-0.5,4.8-1.3,6.1c-0.9,1.3-2.3,1.7-3.3,2C31.5,44.1,31.2,44.2,30.8,44.2z M28.5,33.3c0.7,0.5,0.8,1.6,0.8,3.6
				c0,0.3,0,0.5,0,0.7c0,0.7,0.1,2.1,0.3,2.8c0,0.1,0,0.1,0.1,0.3c0.3,0.8,0.4,1.2,1.5,0.9c0.9-0.3,1.5-0.4,1.7-0.9
				c0.5-0.8,0.8-2.4,0.9-4.8l0,0l0,0c0-0.1,0-0.3,0-0.3c0.1-0.9,0.1-1.7,0.9-2.1c0.4-0.3,0.9-0.4,1.3-0.3c-0.4-0.4-0.4-0.7-0.5-0.9
				l-0.1-0.5l0.3-0.4c1.6-2.4,2.9-5.2,3.6-7.9c0.8-3.1,0.4-4.3,0.3-4.4c-2.8-3.6-7.7-2.1-8.3-2h-0.1h-0.3h-0.3
				c-0.7-0.1-1.3-0.1-2-0.3c-1.2,0-2,0.3-2.8,0.8l-0.5,0.4l-0.7-0.3c-1.3-0.5-5.2-1.6-7.2-0.1c-1.2,0.8-1.6,2.3-1.6,4.7
				c0,0.8,0.5,3.7,1.5,6.7c1.2,4,2.3,5.1,2.5,5.1c0,0,0.1-0.1,0.4-0.4c1.3-1.6,2.5-2.9,2.7-2.9l0.8-0.8l0.9,0.5
				c0.3,0.3,0.7,0.3,0.9,0.4l2.1-1.9l-0.3,3.2c0,0,0,0.1,0,0.3l0.1,0.5l-0.4,0.4l0,0l0.9,0.4L28.5,33.3z"/>
		</g>
		<path class="st2" d="M40.7,32.3c-3.5,0.7-3.6-0.4-3.6-0.4c3.6-5.3,5.1-12.1,3.9-13.9c-3.6-4.5-9.7-2.4-9.7-2.4l0,0
			c-0.7-0.1-1.5-0.3-2.3-0.3c-1.6,0-2.7,0.4-3.6,1.1c0,0-10.9-4.5-10.4,5.7c-0.1,2.1,2.8,16.5,6.4,12.1c1.3-1.6,2.5-2.9,2.5-2.9
			c0.7,0.4,1.3,0.7,2.1,0.5l0,0c0,0.1,0,0.4,0,0.7c-0.9,1.1-0.7,1.2-2.5,1.6c-1.9,0.4-0.8,1.1,0,1.2c0.8,0.3,2.9,0.5,4.3-1.3v0.3
			c0.4,0.3,0.7,1.9,0.5,3.3c0,1.5-0.1,2.4,0.3,3.2c0.3,0.8,0.5,2.5,2.9,2c2-0.4,3.1-1.6,3.2-3.5c0.1-1.3,0.4-1.2,0.4-2.4l0.1-0.5
			c0.3-1.9,0-2.4,1.3-2.1h0.3c0.9,0,2.1-0.1,2.8-0.5C41.2,33.1,42.1,31.9,40.7,32.3L40.7,32.3z"/>
		<path class="st0" d="M30.9,43.4c-2,0-2.7-1.6-2.9-2.3c-0.4-0.9-0.5-4.7-0.4-7.7c0-0.3,0.3-0.4,0.4-0.4c0.3,0,0.4,0.3,0.4,0.4
			c-0.1,3.5,0,6.7,0.3,7.5c0.4,1.1,1.1,2,2.9,1.6c1.9-0.4,2.4-1.1,2.8-2.8c0.3-1.3,0.7-5.2,0.8-5.9c0-0.3,0.3-0.4,0.4-0.4
			c0.3,0,0.4,0.3,0.4,0.4c0,0.8-0.5,4.5-0.8,6c-0.4,2.1-1.3,3.1-3.5,3.5C31.5,43.4,31.2,43.4,30.9,43.4z"/>
		<path class="st0" d="M20,35.5c-0.1,0-0.4,0-0.5-0.1c-1.3-0.4-2.5-2.5-3.7-6.4c-0.9-2.8-1.5-5.9-1.5-6.8c-0.3-2.9,0.5-4.9,2.1-6.1
			c1.3-0.9,3.2-1.2,5.6-0.9c1.7,0.3,3.1,0.8,3.2,0.8c0.3,0.1,0.3,0.4,0.3,0.5c-0.1,0.4-0.4,0.4-0.5,0.4c0,0-5.2-2.1-8-0.1
			c-1.3,0.9-2,2.8-1.9,5.3c0,0.8,0.5,3.7,1.5,6.7c0.9,3.5,2.1,5.6,3.2,5.9c0.1,0,0.7,0.3,1.3-0.7c1.3-1.6,2.5-2.8,2.5-2.8
			c0.1-0.1,0.4-0.1,0.5,0c0.1,0.1,0.1,0.4,0,0.7c0,0-1.2,1.2-2.5,2.8C21.1,35.3,20.4,35.5,20,35.5z"/>
		<path class="st0" d="M36.9,32.2c-0.1,0-0.1,0-0.3-0.1c-0.1-0.1-0.3-0.4-0.1-0.5c3.6-5.5,4.9-12,3.9-13.3c-1.3-1.7-3.3-2.7-5.7-2.8
			c-1.9,0-3.2,0.4-3.5,0.5l0,0c-0.3,0.1-0.4,0-0.5-0.3c-0.1-0.1,0-0.4,0.1-0.5c0.1-0.1,1.9-0.7,3.9-0.7c2.7,0,4.9,1.1,6.5,3.1
			c0.4,0.5,0.5,1.3,0.5,2.4c0,0.9-0.3,2.3-0.5,3.5c-0.8,2.8-2.1,6-3.9,8.4C37.2,32.2,37.1,32.2,36.9,32.2z"/>
		<path class="st0" d="M37.2,34.7c-0.7,0-1.2-0.1-1.5-0.3c-0.4-0.3-0.4-0.5-0.4-0.7c-0.1-1.6,0.8-2,1.2-2.1c0-0.1-0.1-0.1-0.3-0.3
			c-0.3-0.4-0.7-0.8-0.9-1.5c0-0.1-0.1-0.4-0.4-0.7c-0.9-1.6-2.7-4.9-1.5-6.5c0.5-0.8,1.6-1.1,3.2-0.9c-0.3-0.7-0.8-1.7-1.7-2.9
			c-1.1-1.3-3.1-2.9-6.3-2.9c-1.6,0-2.9,0.4-3.9,1.5c-2.1,2-2.1,6.1-2.1,6.1c0,0.3-0.1,0.4-0.4,0.4s-0.4-0.1-0.4-0.4
			c0-0.1-0.1-4.4,2.4-6.9c1.2-1.2,2.7-1.7,4.5-1.7c3.3,0,5.6,1.7,6.8,3.2c1.3,1.6,2,3.3,2,3.9c0,0.4-0.3,0.5-0.4,0.5h-0.1
			c-1.9-0.3-2.7,0.1-2.9,0.5c-0.9,1.2,0.8,4.4,1.6,5.7c0.1,0.4,0.3,0.5,0.4,0.8c0.3,0.5,0.5,0.9,0.8,1.3c0.3,0.3,0.4,0.5,0.5,0.8
			c0,0,0.5,0.7,3.2,0.1c0.7-0.1,1.1,0,1.2,0.4c0.3,0.8-1.2,1.6-1.9,2C39.2,34.6,38.1,34.7,37.2,34.7z M36,33.7
			c0.1,0.1,0.5,0.3,1.3,0.1c0.8,0,1.6-0.3,2.1-0.4c0.5-0.3,0.9-0.5,1.2-0.8l0,0c-1.7,0.4-2.9,0.3-3.6-0.1c0,0-0.1,0-0.1-0.1h-0.1
			C36.4,32.6,36,32.7,36,33.7z"/>
		<path class="st0" d="M24.8,35.9c-0.4,0-0.9,0-1.3-0.1c-0.1,0-1.3-0.4-1.3-1.1c0-0.7,0.9-0.9,1.3-0.9c1.3-0.3,1.3-0.4,1.7-0.9
			c0.1-0.1,0.3-0.4,0.5-0.5c0.7-0.8,1.3-0.5,1.6-0.4c0.4,0.1,0.8,0.7,0.9,1.1c0.1,0.4,0.1,0.9-0.1,1.2
			C27.3,35.4,26.1,35.9,24.8,35.9z M23.1,34.7c0.1,0.1,0.3,0.1,0.5,0.3c1.1,0.3,2.7,0.3,3.7-1.2c0.1-0.1,0.1-0.4,0-0.5
			c-0.1-0.3-0.3-0.5-0.4-0.5c-0.3-0.1-0.4-0.1-0.7,0.1l0,0c-0.1,0.3-0.3,0.4-0.4,0.5c-0.5,0.7-0.8,0.9-2.3,1.2
			C23.5,34.6,23.2,34.6,23.1,34.7z M26.1,32.5L26.1,32.5L26.1,32.5z"/>
		<path class="st0" d="M26,32.9c-0.3,0-0.4-0.1-0.4-0.4v-0.1c-0.9,0-2-0.4-2.7-1.2c-0.9-0.9-1.3-2.3-1.2-3.7
			c0.3-1.5,0.1-2.8,0.1-3.5c0-0.1,0-0.4,0-0.4c0-0.1,0-0.5,1.1-1.1c0.4-0.1,1.2-0.5,2.1-0.7c1.5-0.1,2.4,0.5,2.7,1.9
			c0.8,3.5,0,5.1-0.4,6.3c-0.1,0.3-0.1,0.4-0.3,0.7v0.1c-0.3,0.7-0.5,1.3-0.4,1.7C26.5,32.7,26.4,32.9,26,32.9
			C26.1,32.9,26.1,32.9,26,32.9z M22.7,23.7c0,0.1,0,0.1,0,0.3c0,0.7,0.1,2.1-0.1,3.6c-0.1,1.1,0.1,2.3,0.9,2.9
			c0.5,0.7,1.3,0.9,2.1,0.9c0.1-0.4,0.3-0.8,0.4-1.2v-0.1c0.1-0.3,0.1-0.4,0.3-0.7c0.5-1.1,1.1-2.4,0.4-5.7
			c-0.1-0.7-0.4-0.9-0.9-1.1C24.7,22.5,23.1,23.4,22.7,23.7z"/>
		<g>
			<path class="st0" d="M25.1,23.5c0,0.1,0.3,0.5,0.7,0.5s0.7-0.3,0.7-0.4c0-0.1-0.3-0.3-0.7-0.4C25.3,23.3,25.1,23.4,25.1,23.5
				L25.1,23.5z"/>
			<path class="st0" d="M25.7,24.2C25.7,24.2,25.6,24.2,25.7,24.2c-0.3,0-0.5-0.1-0.7-0.4c0-0.1-0.1-0.3-0.1-0.4l0,0
				c0,0,0-0.1,0.1-0.1c0.1-0.1,0.4-0.1,0.7-0.1c0.4,0,0.8,0.3,0.7,0.5C26.4,23.9,26.1,24.2,25.7,24.2z M25.2,23.5
				c0,0.1,0.3,0.4,0.5,0.4s0.5-0.1,0.5-0.3c0,0-0.1-0.1-0.5-0.1C25.5,23.4,25.2,23.5,25.2,23.5z"/>
		</g>
		<g>
			<path class="st0" d="M35.9,23.1c0,0.1-0.3,0.5-0.7,0.5c-0.4,0-0.7-0.3-0.7-0.4s0.3-0.3,0.7-0.4C35.5,23,35.9,23,35.9,23.1
				L35.9,23.1z"/>
			<path class="st0" d="M35.2,23.8c-0.4,0-0.7-0.3-0.7-0.4c0-0.3,0.3-0.4,0.7-0.4c0.4,0,0.7,0,0.8,0.3l0,0c0,0.1,0,0.3-0.1,0.4
				C35.6,23.7,35.5,23.8,35.2,23.8L35.2,23.8z M35.3,23.1c0,0-0.1,0-0.3,0c-0.4,0-0.5,0.3-0.5,0.3c0.1,0,0.4,0.3,0.7,0.3
				c0.1,0,0.4-0.1,0.4-0.3c0.1-0.1,0.1-0.3,0.1-0.3S35.6,23.1,35.3,23.1z"/>
		</g>
		<path class="st0" d="M36.4,31.3c-0.1,0-0.1,0-0.3-0.1C36,31,35.9,30.7,36,30.6c0.8-1.2,0.7-2.5,0.5-3.7c0-0.5-0.1-1.1-0.1-1.6
			s0.1-0.9,0.1-1.5c0.1-0.5,0.1-0.9,0.1-1.6c0-0.3,0.1-0.4,0.4-0.4c0.3,0,0.4,0.1,0.4,0.4c0,0.7,0,1.2-0.1,1.7
			c0,0.4-0.1,0.8-0.1,1.3c0,0.4,0,0.9,0.1,1.5c0.1,1.3,0.4,2.8-0.7,4.3C36.7,31.1,36.5,31.3,36.4,31.3z"/>
		<path class="st3" d="M13.3,17.9"/>
	</g>
</g>
</svg>
