<?xml version="1.0" encoding="utf-8"?>
<!-- Generator: Adobe Illustrator 21.1.0, SVG Export Plug-In . SVG Version: 6.00 Build 0)  -->
<svg version="1.1" id="Layer_1" xmlns="http://www.w3.org/2000/svg" xmlns:xlink="http://www.w3.org/1999/xlink" x="0px" y="0px"
	 viewBox="0 0 56 56" style="enable-background:new 0 0 56 56;" xml:space="preserve">
<style type="text/css">
	.st0{fill:#FFFFFF;}
	.st1{fill:#666EB2;}
	.st2{fill:none;}
	.st3{fill:#4B515A;}
</style>
<g>
	<path class="st0" d="M28,54.8c-14.8,0-26.8-12-26.8-26.8S13.2,1.2,28,1.2s26.8,12,26.8,26.8S42.8,54.8,28,54.8z"/>
	<path class="st1" d="M28,2.5c14.1,0,25.5,11.4,25.5,25.5S42.1,53.5,28,53.5S2.5,42.1,2.5,28S13.9,2.5,28,2.5 M28,0
		C12.5,0,0,12.5,0,28s12.5,28,28,28s28-12.5,28-28S43.5,0,28,0L28,0z"/>
</g>
<g>
	<rect x="24" y="33.3" class="st2" width="5.3" height="1.3"/>
	<rect x="25.3" y="29.3" class="st2" width="4" height="1.3"/>
	<rect x="25.3" y="26.7" class="st2" width="5.3" height="1.3"/>
	<rect x="24" y="28" class="st2" width="1.3" height="1.3"/>
	<polygon class="st2" points="33.3,16.5 33.3,20 36.7,20 	"/>
	<rect x="29.3" y="30.7" class="st2" width="1.3" height="2.7"/>
	<rect x="18.7" y="26.7" class="st2" width="4" height="1.3"/>
	<path class="st2" d="M37.3,21.3h-4.7c-0.4,0-0.7-0.3-0.7-0.7V16H19.1c-0.3,0-0.4,0.1-0.4,0.4V24h18.7v-2.7H37.3z"/>
	<rect x="34.7" y="32" class="st2" width="1.3" height="2.7"/>
	<rect x="33.3" y="29.3" class="st2" width="1.3" height="2.7"/>
	<rect x="37.3" y="26.7" class="st2" width="1.3" height="2.7"/>
	<rect x="36" y="29.3" class="st2" width="1.3" height="2.7"/>
	<rect x="17.3" y="28" class="st2" width="1.3" height="5.3"/>
	<rect x="32" y="26.7" class="st2" width="1.3" height="2.7"/>
	<rect x="18.7" y="33.3" class="st2" width="4" height="1.3"/>
	<path class="st2" d="M18.7,39.6c0,0.3,0.1,0.4,0.4,0.4H37c0.3,0,0.4-0.1,0.4-0.4v-2.3H18.7V39.6z"/>
	<path class="st3" d="M40.7,24h-2v-3.3c0-0.5-0.3-0.8-0.5-1.1l-4.3-4.4c-0.3-0.3-0.8-0.5-1.2-0.5H19.1c-0.9,0-1.7,0.8-1.7,1.7V24
		h-1.9c-1.2,0-2.1,0.9-2.1,2v9.3c0,1.2,0.9,2,2.1,2h2v2.3c0,0.9,0.8,1.7,1.7,1.7h17.9c0.9,0,1.7-0.8,1.7-1.7v-2.3h1.9
		c1.2,0,2-0.9,2-2V26C42.7,24.9,41.7,24,40.7,24z M33.3,16.5l3.3,3.5h-3.3V16.5z M18.7,16.4c0-0.3,0.1-0.4,0.4-0.4H32v4.7
		c0,0.4,0.3,0.7,0.7,0.7h4.7V24H18.7V16.4z M29.3,29.3v1.3h1.3v2.7h-1.3v1.3H24v-1.3h5.3v-2.7h-4v-1.3H24V28h1.3v-1.3h5.3V28h-5.3
		v1.3H29.3z M17.3,33.3V28h1.3v-1.3h4V28h-4v5.3h4v1.3h-4v-1.3H17.3z M37.3,39.6c0,0.3-0.1,0.4-0.4,0.4H19.1c-0.3,0-0.4-0.1-0.4-0.4
		v-2.3h18.7v2.3H37.3z M38.7,29.3h-1.3V32H36v2.7h-1.3V32h-1.3v-2.7H32v-2.7h1.3v2.7h1.3V32H36v-2.7h1.3v-2.7h1.3v2.7H38.7z"/>
</g>
</svg>
