<?xml version="1.0" encoding="utf-8"?>
<!-- Generator: Adobe Illustrator 21.1.0, SVG Export Plug-In . SVG Version: 6.00 Build 0)  -->
<svg version="1.1" id="Layer_1" xmlns="http://www.w3.org/2000/svg" xmlns:xlink="http://www.w3.org/1999/xlink" x="0px" y="0px"
	 viewBox="0 0 56 56" style="enable-background:new 0 0 56 56;" xml:space="preserve">
<style type="text/css">
	.st0{fill:#FFFFFF;}
	.st1{fill:#666EB2;}
	.st2{fill:#FDEE21;}
	.st3{fill:#C8C037;}
	.st4{fill:#FCF6A0;}
	.st5{stroke:#000000;stroke-width:0.114;}
</style>
<g>
	<path class="st0" d="M28,54.8c-14.8,0-26.8-12-26.8-26.8S13.2,1.2,28,1.2s26.8,12,26.8,26.8S42.8,54.8,28,54.8z"/>
	<path class="st1" d="M28,2.5c14.1,0,25.5,11.4,25.5,25.5S42.1,53.5,28,53.5S2.5,42.1,2.5,28S13.9,2.5,28,2.5 M28,0
		C12.5,0,0,12.5,0,28s12.5,28,28,28s28-12.5,28-28S43.5,0,28,0L28,0z"/>
</g>
<g id="Layer_3">
	<g transform="translate(-.53268 66.8)">
		<path class="st2" d="M30.8-49.9c-0.3-0.8-9.7-4.4-9.9-4c-1.7,0.4-2.4,2.4-3.6,3.7l-2.7-0.1c-1.2,1.5-1.7,3.1-1.3,4.7
			c1.5,2,3.2,3.7,4.3,6.3c0.1,1.2,5.2,0.1,6.3-0.1c-1.5,1.1-2.8,2.7-2.3,7.5c0.5,2.3,0.8,4.8,5.3,7.3c0.5,0.4,1.9,0.7,2.5,0.9
			c0.7,0.4,1.6,0.5,4-0.3c1.3-0.5,2.9-0.9,4.3-1.6l-1.6,0.1c-2.3,0-4,0.3-4.5-0.4l-2.1-3.6l1.2-2.4c1.7,0.1,2.3,1.5,3.7,2l1.7-1.3
			c5.1,2.9,7.1-1.9,7.6-5.7c0-1.6-3.3,0.5-3.2-0.3c0.1-1.6-1.3-3.9-2.1-5.5l1.1-3.9c0.4-0.4-2.1-4.8-4.3-5.3
			C33.6-52.3,30.8-49.9,30.8-49.9L30.8-49.9z"/>
	</g>
	<g>
		<g transform="translate(-.53268 66.8)">
			<path class="st3" d="M39.2-41.6c0,0.4,0,0.9,0,1.2c0,0.3-0.1,0.3-0.4,0.3l0.9,0.4c0.1,0.3,0.4,0.7,0.5,0.9c0.1,0.8,0,0.8-0.1,0.9
				c-0.4,0-0.7,0-1.1,0c0.1,0.1,0.1,0.1,0.1,0.3c0,0.1-0.1,0.4-0.3,0.7c0.3,0.1,0.8,0.3,1.2,0.5l0.4-0.9
				C40.5-38.9,40-40.3,39.2-41.6L39.2-41.6z"/>
			<path class="st3" d="M40.9-36.7c0.5,0.3,1.3,0.1,2.4-0.4c0.1-0.1,0.3,0,0,0.1C42-35.6,41.3-36.3,40.9-36.7L40.9-36.7z"/>
			<path class="st3" d="M43.4-37.2c0.1,0.3,0,0.5,0,0.8c-0.1,1.3-0.5,2.4-1.3,3.5c-2.7,4.3-5.3,1.6-7.5-0.1l-0.9,2.3
				c0,0.1-0.3,0.4,1.2,0.9l1.5-0.9C41.6-26.8,45.3-36.5,43.4-37.2L43.4-37.2z"/>
			<path class="st3" d="M35.2-33.3c-0.4,0-1.5,0.4-1.5,0.7l0.5-0.8L35.2-33.3z"/>
			<path class="st3" d="M34.5-37.9c0,0,0.4,0.1,0.4,0c0,0,0,0.4,0.1,0.7l-0.5,0.9c0.8-0.8,1.9-0.8,3.1-0.9L37-37.5
				c0.1-0.3,0-0.5,0-0.8L34.5-37.9z"/>
			<path class="st3" d="M36.4-40.4c-0.8,0.3-1.6,0.7-2.1,1.5c0.4-1.5,0.5-1.3,0.5-1.5C35.4-40.5,35.8-40.4,36.4-40.4L36.4-40.4z"/>
		</g>
		<g transform="translate(-.53268 66.8)">
			<path class="st4" d="M32.1-24c-0.9,1.1-3.1-0.1-4.9-0.7c-4.5-2.9-5.5-5.6-5.5-8.3c-0.3-3.9,0.9-6,2.4-6.5
				c-0.9,1.9-1.5,5.3-0.9,7.9c0.4,1.5,0.4,3.7,2.7,5.1c1.2,0.7,0.8,1.2,1.6,1.7C28.4-24.3,30.6-23.6,32.1-24L32.1-24z"/>
			<path class="st4" d="M33.4-41.6c-1.6-2.3-3.9-3.2-6.5-3.3c0.5-0.1,1.1-0.3,1.6-0.5c0.1-0.1,0.1-0.4,0-0.7c-2.5-0.7-4-1.5-6-2.1
				l5.3,1.3C31.6-46.8,31.2-45.9,33.4-41.6L33.4-41.6z"/>
			<path class="st4" d="M35.3-42.7c-1.2-1.7-2.4-3.9-4-5.2c-3.9-1.7-7.6-3.1-12-4.1l1.5-1.9c4.7,1.1,9.2,2.9,13.1,5.9
				C34.4-46.3,34.9-44.7,35.3-42.7L35.3-42.7z"/>
			<path class="st4" d="M37.7-45.7c0,0-0.7-1.5-1.1-2.1c-0.8-0.8-1.2-2.4-2.7-3.2c0.5,0.1,0.8,0,1.9,0.9l1.6,3.1L37.7-45.7z"/>
			<path class="st4" d="M38.5-43.2c0.1-1.3,0.4-3.5,0.1-4.3c-0.9-1.3-1.9-2.5-2.8-3.7c-0.1-0.1-0.3-0.4-0.4-0.5
				c1.3,0.4,2.8,1.3,4.7,4.9L38.5-43.2z"/>
		</g>
		<g transform="translate(-.53268 66.8)">
			<path d="M32.9-42.9c-0.5-0.4-1.1-1.9-1.9-2.3c-0.8,0-1.1-0.3-2-0.1c0.4-0.1,0.7-0.4,1.1-0.5c0.3,0,0.5,0,0.8,0c0,0,0.1,0,0.1-0.1
				c-0.9-0.7-3.1-0.7-4.4-0.9c1.6,0,3.3,0,4.5,0.4C32.1-45.7,32.4-44.1,32.9-42.9L32.9-42.9z"/>
			<path d="M35.8-50.1c0.3,0,1.5,1.9,1.5,2.3c0.1,0.7,0.4,1.5,0.4,2.1c-0.1-0.7-0.4-1.3-0.7-2c-0.1-0.1-0.3-0.7-0.8-1.2
				C36-49.5,35.8-49.9,35.8-50.1L35.8-50.1z"/>
			<path d="M39.8-39.9h-0.5H39.8L39.8-39.9z"/>
			<path d="M36.4-40.4c-0.5,0-1.1-0.1-1.6,0c-0.3,0.3-0.3,0.5-0.3,0.8C35.2-40.3,35.3-40.3,36.4-40.4L36.4-40.4z"/>
			<path d="M43.3-36.9c-0.3,0.3-0.3,0.4-1.2,0.7c-0.7,0.1-0.9-0.1-1.2-0.4c0.4,0.1,0.5,0.4,1.7,0.1L43.3-36.9z"/>
			<path d="M40.8-36.8c-0.3,0.5-0.4,1.1-0.7,1.6c-0.5,0.7-0.3,0.3-1.1,1.2c0.3-0.4,0.5-0.8,0.8-1.2c0.1-0.3,0.3-0.5,0.4-0.8
				c-0.3-0.1-0.7-0.1-0.7-0.1c-0.7,0.4-0.8,0.8-1.2,1.3c0.3-0.5,0.5-1.1,0.9-1.5c0,0,0.3-0.1,0.4-0.1c-0.3,0-0.7-0.1-0.8-0.1
				c-0.4,0.1-0.7,0.5-1.1,0.8c0.3-0.4,0.5-0.7,0.8-1.1c0,0,0.9,0,1.3,0.3v0.1l0.3,0.1l0.1-0.5L40.8-36.8z"/>
			<path d="M35.2-33.3c-0.1,0-1.1-0.1-1.1-0.1c-0.4,0.3-0.4,0.5-0.4,0.8C34.2-33.3,34.2-33.3,35.2-33.3L35.2-33.3z"/>
			<path d="M34.4-37.9c0,0,0.7-0.1,0.7,0c0,0.3,0.1,0.8,0.1,0.8l-0.4,0.3c0.8-0.4,1.7-0.4,2.7-0.4c0,0-0.8-0.3-0.7-0.3
				c0.1,0,0-0.8-0.1-0.8c0.1,0,0.3-0.1,0.4-0.1C36-38.7,35.4-38.5,34.4-37.9L34.4-37.9z"/>
			<path d="M40.6-37.3l-0.1,0.1c0-0.5-0.5-0.4-0.9-0.4l-0.4-0.1c0.1,0.1,0.4,0.1,0.3,0.3c-0.1,0-0.1,0.3-0.3,0.5H39
				c0.4,0.1,0.7,0.3,1.1,0.4h0.3l0.5-0.3L40.6-37.3z"/>
		</g>
		<g transform="translate(-.53268 66.8)">
			<path class="st0" d="M35.8-37.6c-0.1-0.1-0.5-0.1-0.5,0c-0.1,0.1,0,0.7,0.1,0.5c0.1-0.1,0.3-0.1,0.5-0.1
				C36-37.5,36-37.5,35.8-37.6L35.8-37.6z"/>
			<path class="st0" d="M39.8-36.8c0,0,0.1-0.3,0.1-0.4s-0.4-0.1-0.4-0.1c-0.1,0-0.1,0.4-0.1,0.4C39.3-36.8,39.7-36.8,39.8-36.8
				L39.8-36.8z"/>
		</g>
		<g transform="translate(-.53268 66.8)">
			<path d="M23.6-27.5h0.3c1.5,0.7,3.7,1.7,7.2,1.2l0.5,0.8c-1.5,0.7-3.1,0.5-4.7,0.7L23.6-27.5z"/>
			<path d="M21.4-32.9l0.7,2.9c1.9,1.2,5.2,2.5,7.9,2.4l-0.7-1.3C23.8-30.1,23.3-31.6,21.4-32.9L21.4-32.9z"/>
			<path d="M23.3-39.2c0.4,2.3,0.8,4.1,2.8,5.6c1.2,0.9,2.5,1.7,4,2.5c0,0-0.1,0.7-0.3,0.7c-4.4-0.5-7.7-4.1-8.1-5.9
				C22.1-37.6,22.6-38.4,23.3-39.2L23.3-39.2z"/>
			<path d="M25.4-40.4c0.5,2.5,2,5.2,3.5,7.6c0.5,0.7,0.7,0.9,1.5,1.3c1.1,0.4,1.9,0.3,2.7,0.3c-0.3-0.4-0.4-0.8-0.7-1.2
				c-1.7-1.3-0.9-2.7-0.5-3.5c-0.9-0.3-2.3-0.8-2.4-1.5c-0.3-2.3-0.1-2.9,0.1-4C28.1-41.2,26.8-40.9,25.4-40.4L25.4-40.4z"/>
			<path class="st5" d="M20.6-54.1c-0.4,0.3-0.8,0.7-1.3,1.2c-0.8,0.8-1.2,1.5-2,2.1c-0.1,0.1-0.5,0.4-1.1,0.4c-0.3,0-0.4,0-0.9,0
				c-0.4-0.3-0.8-0.1-1.2,0.4c-0.4,0.4-0.9,1.6-1.1,2.3c-0.4,1.9,0.7,3.3,1.7,4.4s1.6,1.6,2,2.5c0.3,0.5,0.5,1.3,0.8,1.9
				c0.1,0.1,0.1,0.1,0.3,0.3c0.5,0.1,1.2,0.1,1.9,0.1c0.3,0,0.7,0,1.1,0c0.5-0.1,1.1-0.1,1.6-0.4c0.5-0.1,0.9-0.3,1.2-0.4
				c0,0.1-0.4,0.3-0.5,0.5c-1.3,1.9-1.6,3.5-1.5,6c0.1,1.2,0.4,2.1,0.8,3.2c0.1,0.5,0.5,1.3,0.9,1.7c1.1,1.6,3.6,3.6,6.9,4.3
				c0.5,0.1,1.3,0,1.9-0.1c1.7-0.5,5.1-1.7,5.1-1.7s-3.1,0.3-4.4,0.1c-0.3,0-0.7-0.1-0.9-0.3l-0.1-0.3c0.1,0,0.5-0.1,1.1-0.1
				c-1.2-0.1-1.1-0.1-1.2-0.3c-0.1-0.3-0.3-0.8-0.5-1.2c0.5,0,1.6,0.1,2-0.3c0,0-0.7,0.1-1.2,0c-0.1,0-0.5-0.1-0.7-0.1
				C30.9-28,30.6-28,30.6-28c-0.1-0.3-0.1-0.3-0.3-0.7s-0.1-0.8-0.1-1.3c0.4,0.5,0.8,0.8,1.5,1.1c0,0,0.8,0.4,1.5,0.1h0.1
				c0,0-0.4,0-0.5,0c-1.2-0.5-1.5-0.9-1.6-1.2l-0.5-0.8c0.1-0.3,0.3-0.3,0.4-0.4c0.7,0.1,0.9,0.1,1.3,0c0.3,0.5,0.4,1.1,0.9,1.5
				c2,0.5,2.4-0.1,2.9-0.8c1.5,1.1,3.7,1.3,5.5,0c2-2.4,2.7-6.1,2.5-6.4c-0.3-0.4-0.5-0.9-0.9-0.8c-1.1,0.3-1.5,0.8-2.4,0.7
				c0.1,0,0.3,0,0.3,0c0.1-0.9,0-1.3,0-1.3c-0.3-0.7-0.7-1.5-1.1-2c-0.1-0.1-0.3-0.9-0.7-1.3c-0.1-0.1-0.5-0.5-0.5-0.5v0.4
				c0,0,0.1,0,0.3,0.3c0.3,0.9,1.3,2.9,1.3,3.1c0.4,0.7,0,1.5,0.3,1.9c0,0,0.5,0,1.1,0c0.7-0.1,0.7-0.5,1.3-0.5
				c0.4,0,0.4,0.8,0.4,0.8c-0.1,0.9-0.4,1.9-0.8,2.8c-0.8,1.6-1.9,3.1-3.2,3.3C38-30,37-30.7,36.2-31.2l-0.4,0.3
				c-1.2,1.2-2.5,1.1-3.1-0.4c-0.3-0.5-0.7-0.9-0.9-1.5l-1.6,1.2c-0.1,0.3-0.3,0.7-0.5,1.2c-0.1,0.4-0.3,0.9-0.3,1.5
				c-0.3,0.4,0.8,1.9,1.3,2.7c0.1,0.3,0.5,0.7,0.5,0.8c0.1,0.3,0.4,0.5,0.4,0.7c1.1,1.5-1.5,1.1-1.9,1.1c-1.1-0.1-2-0.5-2.9-1.2
				l-0.1-0.1c-1.1-0.7-2.1-1.6-3.1-2.5c-0.5-0.5-1.1-1.9-1.3-2.7c-0.5-2.1-1.3-5.6,0.8-8.4c0-0.1,0.1-0.4,0.3-0.4
				c0.7-0.4,1.3-0.7,2.1-0.9l-0.1-0.5c-0.4,0.1-1.6,0.5-2,0.8c-0.8,0.3-1.5,0.5-2.5,0.8c-0.4,0-0.7,0-0.9,0c-0.7-0.1-2-0.1-2-0.1
				c-0.5-0.7-0.7-2-1.1-2.7l0,0l0,0c-0.3-0.4-0.5-0.7-0.9-0.9c-1.1-1.1-2-2.1-2.3-3.2c0-0.3-0.3-0.7-0.1-1.6l0,0l0,0
				c0.3-0.9,0.7-1.6,1.5-2.4c0.8,0,1.5,0,2.1,0.1c0.3,0,0.8,0.1,1.3,0.3c1.5,0.5,3.3,1.5,3.3,1.5c-1.5-0.8-3.1-1.9-4.1-2
				c-0.1,0-0.3-0.1-0.3-0.3c1.5-0.9,1.9-2,2.8-2.9c0.4-0.3,0.7-0.3,1.1-0.4c3.6,0.5,5.9,2,7.7,2.9c0.7,0.4,1.3,0.7,2,1.1
				c0.5,0.1,2.3,1.5,2.7,2.1c0.5,1.1,0.8,2.1,1.2,3.3c0.3,1.1,0.4,1.6,0.4,1.6s-0.3-0.9-0.1-1.1c0.3,0.1,0.7,0.3,0.9,0.3
				c0,0-0.9-0.5-1.1-0.9c-0.4-1.3-0.8-3.5-0.9-3.6c-0.3-0.4-1.5-1.3-2.3-1.7c-0.3-0.1-0.4-0.3-0.4-0.4c0.3-0.3,0.5-0.5,0.8-0.8
				c0.3-0.1,0.5-0.4,0.8-0.5c1.6-0.7,2.4,0.3,2.7,0.1c0,0-0.4-0.4-0.1-0.3c0.1,0.1,0.7,0.1,0.7,0.3c0.5,0.4,2,2.1,2.9,3.7
				c0.3,0.4,0.3,0.7,0.3,1.2c-0.1,0.5-0.1,0.8-0.3,1.1c-0.1,0.3-0.7,1.7-0.7,2c-0.1,0.8,0.4,1.9,0.4,1.9c0-0.3,0-0.4,0-0.7v-0.4
				v-0.1c0-0.3,0.1-0.5,0.1-0.7c0.1-1.1,0.5-1.9,0.8-2.9c0.1-0.3,0.3-0.4,0.3-0.5c0-0.3-0.3-0.8-0.5-1.2c-0.3-0.4-0.5-0.9-0.8-1.5
				c-0.8-1.1-1.5-2-2.7-2.5c-0.4-0.1-1.7-0.3-2.1-0.3c-0.5,0.1-1.1,0.3-1.5,0.5c-0.7,0.4-1.1,0.9-1.6,1.3c-1.2-0.7-1.9-1.1-2-1.2
				c-0.7-0.4-1.6-0.8-2.5-1.3C26-52.9,23.2-53.9,20.6-54.1L20.6-54.1z M36.4-31.2c-0.8-0.5-1.3-1.2-1.9-1.9
				c-0.1,0.8-0.7,1.2-1.1,1.7c-0.1,0.1-0.1,0.3,0.3,0.8c0.1,0.1,0.5,0.1,0.7,0.1c-0.3-0.1-0.7-0.4-0.7-0.5c0.4,0.3,0.8,0.4,1.2,0.4
				c0.1,0,0.1-0.1,0.3-0.3c0.1-0.4,0.3-0.4,0.4-0.5l0.3,0.4L36.4-31.2z"/>
		</g>
	</g>
</g>
</svg>
