<?xml version="1.0" encoding="utf-8"?>
<!-- Generator: Adobe Illustrator 21.1.0, SVG Export Plug-In . SVG Version: 6.00 Build 0)  -->
<svg version="1.1" id="Layer_1" xmlns="http://www.w3.org/2000/svg" xmlns:xlink="http://www.w3.org/1999/xlink" x="0px" y="0px"
	 viewBox="0 0 56 56" style="enable-background:new 0 0 56 56;" xml:space="preserve">
<style type="text/css">
	.st0{fill:#FFFFFF;}
	.st1{fill:#B6B9C1;}
	.st2{fill:#3F7651;}
</style>
<g>
	<path class="st0" d="M28,54.8c-14.8,0-26.8-12-26.8-26.8S13.2,1.2,28,1.2s26.8,12,26.8,26.8S42.8,54.8,28,54.8z"/>
	<path class="st1" d="M28,2.5c14.1,0,25.5,11.4,25.5,25.5S42.1,53.5,28,53.5S2.5,42.1,2.5,28S13.9,2.5,28,2.5 M28,0
		C12.5,0,0,12.5,0,28s12.5,28,28,28s28-12.5,28-28S43.5,0,28,0L28,0z"/>
</g>
<g>
	<g>
		<path class="st2" d="M40.7,24h-2v-3.3c0-0.5-0.3-0.8-0.5-1.1l-4.3-4.4c-0.3-0.4-0.8-0.5-1.2-0.5H19.1c-0.9,0-1.7,0.8-1.7,1.7V24
			h-1.9c-1.2,0-2.1,0.9-2.1,2v9.2c0,1.2,0.9,2.1,2.1,2.1h1.9v2.3c0,0.9,0.8,1.7,1.7,1.7h17.9c0.9,0,1.7-0.8,1.7-1.7v-2.3h2
			c1.2,0,2-0.9,2-2v-9.2C42.7,24.9,41.7,24,40.7,24z M36.7,20h-3.3v-3.5L36.7,20z M18.7,16.4c0-0.3,0.1-0.4,0.4-0.4H32v4.7
			c0,0.4,0.3,0.7,0.7,0.7h4.7V24H18.7V16.4z M30.7,33.3v1.3h-5.3v-8h1.3v6.7H30.7z M18.7,34.7h-1.3V32h1.3v-2.7h-1.3v-2.7h1.3v2.7
			h2.7v-2.7h1.3v2.7h-1.3V32h1.3v2.7h-1.3V32h-2.7V34.7z M37.3,39.6c0,0.3-0.1,0.4-0.4,0.4H19.1c-0.3,0-0.4-0.1-0.4-0.4v-2.3h18.7
			V39.6z M37.3,28h-4v1.3H36v1.3h1.3v2.7H36v1.3h-4v-1.3h4v-2.7h-2.7v-1.3H32V28h1.3v-1.3h4V28z"/>
	</g>
</g>
</svg>
