<?xml version="1.0" encoding="utf-8"?>
<!-- Generator: Adobe Illustrator 21.1.0, SVG Export Plug-In . SVG Version: 6.00 Build 0)  -->
<svg version="1.1" id="Layer_1" xmlns="http://www.w3.org/2000/svg" xmlns:xlink="http://www.w3.org/1999/xlink" x="0px" y="0px"
	 viewBox="0 0 56 56" style="enable-background:new 0 0 56 56;" xml:space="preserve">
<style type="text/css">
	.st0{fill:#4A515C;}
</style>
<g>
	<g>
		<path class="st0" d="M36.2,17H19.8c-1.5,0-2.8,1.2-2.8,2.8v16.5c0,1.5,1.2,2.8,2.8,2.8h4.8l0,0l0,0h6.9l0,0l0,0h4.8
			c1.5,0,2.8-1.2,2.8-2.8V19.8C39,18.2,37.8,17,36.2,17z M20.4,18.4h15.1c1.1,0,2.1,0.9,2.1,2.1v3.4h-6.2l0,0l0,0h-6.9l0,0l0,0h-6.2
			v-3.4C18.4,19.3,19.3,18.4,20.4,18.4z M30.8,25.3v12.4h-5.5V25.3H30.8z M18.4,35.6V25.3h5.5v12.4h-3.4
			C19.3,37.6,18.4,36.7,18.4,35.6z M35.6,37.6h-3.4V25.3h5.5v10.3C37.6,36.7,36.7,37.6,35.6,37.6z"/>
	</g>
</g>
</svg>
