<?xml version="1.0" encoding="utf-8"?>
<!-- Generator: Adobe Illustrator 21.1.0, SVG Export Plug-In . SVG Version: 6.00 Build 0)  -->
<svg version="1.1" id="Layer_1" xmlns="http://www.w3.org/2000/svg" xmlns:xlink="http://www.w3.org/1999/xlink" x="0px" y="0px"
	 viewBox="0 0 56 56" style="enable-background:new 0 0 56 56;" xml:space="preserve">
<style type="text/css">
	.st0{fill:#FFFFFF;}
	.st1{fill:#666EB2;}
	.st2{fill:url(#SVGID_1_);}
	.st3{fill:url(#SVGID_2_);}
	.st4{fill:url(#SVGID_3_);}
	.st5{fill:url(#SVGID_4_);}
</style>
<g>
	<path class="st0" d="M28,54.8c-14.8,0-26.8-12-26.8-26.8S13.3,1.2,28,1.2s26.8,12,26.8,26.8S42.8,54.8,28,54.8z"/>
	<path class="st1" d="M28,2.5c14.1,0,25.5,11.4,25.5,25.5S42.1,53.5,28,53.5S2.5,42.1,2.5,28S14,2.5,28,2.5 M28,0
		C12.6,0,0,12.5,0,28s12.5,28,28,28s28-12.5,28-28S43.5,0,28,0L28,0z"/>
</g>
<g>
	<g>
		
			<linearGradient id="SVGID_1_" gradientUnits="userSpaceOnUse" x1="1496.468" y1="800.9574" x2="1500.3971" y2="800.9574" gradientTransform="matrix(-0.999 4.430000e-02 4.430000e-02 0.999 1492.778 -842.4035)">
			<stop  offset="0" style="stop-color:#F6921D"/>
			<stop  offset="2.049476e-02" style="stop-color:#F68E1D"/>
			<stop  offset="0.2346" style="stop-color:#F2651F"/>
			<stop  offset="0.4443" style="stop-color:#EF4521"/>
			<stop  offset="0.6456" style="stop-color:#EE2E22"/>
			<stop  offset="0.8349" style="stop-color:#EC2023"/>
			<stop  offset="1" style="stop-color:#EC1B23"/>
		</linearGradient>
		<path class="st2" d="M33,34.7c0,0,1.3-3.9-0.3-8.7c-1.2-3.6-2.7-4.1-0.1-12.5c0,0-4.9,4.4-3.1,9.5c0.4,0.9,0.3,1.1,1.5,2.9
			C32.2,27.9,33.3,30.3,33,34.7z"/>
		
			<linearGradient id="SVGID_2_" gradientUnits="userSpaceOnUse" x1="1497.4117" y1="802.4761" x2="1502.7467" y2="802.4761" gradientTransform="matrix(-0.999 4.430000e-02 4.430000e-02 0.999 1492.778 -842.4035)">
			<stop  offset="0" style="stop-color:#F6921D"/>
			<stop  offset="2.049476e-02" style="stop-color:#F68E1D"/>
			<stop  offset="0.2346" style="stop-color:#F2651F"/>
			<stop  offset="0.4443" style="stop-color:#EF4521"/>
			<stop  offset="0.6456" style="stop-color:#EE2E22"/>
			<stop  offset="0.8349" style="stop-color:#EC2023"/>
			<stop  offset="1" style="stop-color:#EC1B23"/>
		</linearGradient>
		<path class="st3" d="M32.8,35.3c0,0,0.8-4.1-2.9-9.9c-1.5-2.3-2.1-6.1-0.5-9.5c0,0-4.8,6.9-0.7,11.6c0,0,0.5,0.5,0.9,1.1
			C29.7,29.1,33,33.6,32.8,35.3z"/>
		
			<linearGradient id="SVGID_3_" gradientUnits="userSpaceOnUse" x1="1497.7369" y1="805.6658" x2="1503.9717" y2="805.6658" gradientTransform="matrix(-0.999 4.430000e-02 4.430000e-02 0.999 1492.778 -842.4035)">
			<stop  offset="0" style="stop-color:#F6921D"/>
			<stop  offset="2.049476e-02" style="stop-color:#F68E1D"/>
			<stop  offset="0.2346" style="stop-color:#F2651F"/>
			<stop  offset="0.4443" style="stop-color:#EF4521"/>
			<stop  offset="0.6456" style="stop-color:#EE2E22"/>
			<stop  offset="0.8349" style="stop-color:#EC2023"/>
			<stop  offset="1" style="stop-color:#EC1B23"/>
		</linearGradient>
		<path class="st4" d="M32.5,35.6c0,0,0-0.5-0.4-1.3c-0.5-1.2-1.9-4-3.7-5.7c-2.8-2.5-2.1-6.3-2.1-6.3c-1.1,6.3,0.7,7.9,1.7,8.5
			C30.5,32.5,31.8,33.7,32.5,35.6z"/>
	</g>
	
		<linearGradient id="SVGID_4_" gradientUnits="userSpaceOnUse" x1="17.9667" y1="771.4" x2="37.9667" y2="771.4" gradientTransform="matrix(1 0 0 1 0 -744)">
		<stop  offset="0" style="stop-color:#F6921D"/>
		<stop  offset="2.049476e-02" style="stop-color:#F68E1D"/>
		<stop  offset="0.2346" style="stop-color:#F2651F"/>
		<stop  offset="0.4443" style="stop-color:#EF4521"/>
		<stop  offset="0.6456" style="stop-color:#EE2E22"/>
		<stop  offset="0.8349" style="stop-color:#EC2023"/>
		<stop  offset="1" style="stop-color:#EC1B23"/>
	</linearGradient>
	<path class="st5" d="M37.6,28.8c-1.3-5.1-4.3-9.2-0.1-16.7c0,0-8,2.8-4.4,13.2c2.3,6.4,1.6,10-0.4,12c-0.8,0.8-2.3,1.9-4.7,1.6
		s-3.7-1.6-4.8-2.9c-1.5-2-2-4.8,0-8.9c1.2-2.7,1.9-4.9,1.9-4.9c0.1-0.5,0.3-0.8,0.4-1.2c0.9,0.1,1.3-0.7,1.3-0.7
		c-0.4,0.1-0.5-0.1-0.5-0.1c0.8-0.4,0.5-1.1,0.5-1.1c-0.4,0.3-0.9,0.1-0.9,0.1s-0.9,0-1.1,0c-1.7-1.3-2.9-1.1-3.6-0.5
		c-0.1,0.3-0.3,0.3-0.4,0.5c-0.3,0.3-0.4,0.5-0.4,0.5s-1.7,0.3-2.3,1.3c0,0,1.2-0.8,2.3-0.4c0.1,0.1,0.7,0.5,1.1,1.6
		c0.3,0.5,0,1.9-0.3,2.3c-1.5,2.8-3.2,4.8-3.2,7.6c0,2.5,0.9,4.9,2.4,6.7c3.1,3.9,7.9,3.9,8,3.9c5.7,0,9.7-4.7,9.7-10.5
		C38,30.9,37.8,29.6,37.6,28.8z"/>
</g>
</svg>
