<?xml version="1.0" encoding="utf-8"?>
<!-- Generator: Adobe Illustrator 21.1.0, SVG Export Plug-In . SVG Version: 6.00 Build 0)  -->
<svg version="1.1" id="Layer_2_2_" xmlns="http://www.w3.org/2000/svg" xmlns:xlink="http://www.w3.org/1999/xlink" x="0px" y="0px"
	 viewBox="0 0 56 56" style="enable-background:new 0 0 56 56;" xml:space="preserve">
<style type="text/css">
	.st0{fill:#FFFFFF;}
	.st1{fill:#666EB2;}
	.st2{fill:#205B98;}
	.st3{fill:#5294CF;}
	.st4{fill:#2D72B8;}
</style>
<g>
	<path class="st0" d="M28,54.8c-14.8,0-26.8-12-26.8-26.7c0-14.8,12-26.8,26.8-26.8s26.8,12,26.8,26.8C54.8,42.8,42.8,54.8,28,54.8z
		"/>
	<path class="st1" d="M28,2.6c14.1,0,25.5,11.4,25.5,25.5S42.1,53.6,28,53.6S2.5,42.1,2.5,28.1S13.9,2.6,28,2.6 M28,0.1
		c-15.5,0-28,12.5-28,28s12.5,28,28,28s28-12.5,28-28S43.5,0.1,28,0.1L28,0.1z"/>
</g>
<g id="Layer_1_1_">
	<g>
		<polygon class="st2" points="28,35.8 39.2,38.5 39.2,17.5 28,20.2 		"/>
		<polygon class="st3" points="39.2,17.5 41.3,18.6 41.3,37.4 39.2,38.5 		"/>
		<polygon class="st3" points="28,35.8 16.8,38.5 16.8,17.5 28,20.2 		"/>
		<polygon class="st2" points="16.8,17.5 14.7,18.6 14.7,37.4 16.8,38.5 		"/>
		<polygon class="st3" points="30.8,42.7 35.1,40.6 35.1,15.5 30.8,13.4 29.5,27.3 		"/>
		<polygon class="st2" points="25.2,42.7 20.9,40.6 20.9,15.5 25.2,13.4 26.5,27.3 		"/>
		<rect x="25.2" y="13.4" class="st4" width="5.7" height="29.3"/>
	</g>
</g>
</svg>
